<?xml version="1.0" standalone="no"?>
<!DOCTYPE svg PUBLIC "-//W3C//DTD SVG 20010904//EN"
 "http://www.w3.org/TR/2001/REC-SVG-20010904/DTD/svg10.dtd">
<svg version="1.0" xmlns="http://www.w3.org/2000/svg"
 width="577.000000pt" height="577.000000pt" viewBox="0 0 577.000000 577.000000"
 preserveAspectRatio="xMidYMid meet">
<metadata>
Created by potrace 1.14, written by Peter Selinger 2001-2017
</metadata>
<g transform="translate(0.000000,577.000000) scale(0.100000,-0.100000)"
fill="#000000" stroke="none">
<path d="M2363 4179 c-51 -9 -112 -40 -156 -78 -18 -17 -55 -35 -83 -42 -56
-13 -118 -46 -154 -81 -14 -13 -47 -29 -75 -35 -112 -25 -204 -108 -242 -215
-17 -50 -18 -105 -17 -873 l0 -820 23 -58 c28 -71 107 -169 169 -208 107 -68
244 -82 343 -37 30 14 70 38 89 55 19 16 57 35 84 42 62 15 116 43 157 81 19
16 41 30 51 30 35 0 126 41 166 76 45 38 86 101 103 156 6 18 12 69 14 113 2
44 4 83 4 87 1 7 81 1 89 -7 3 -3 6 -105 7 -228 2 -243 6 -266 66 -359 58 -89
163 -164 264 -186 95 -20 218 10 291 71 22 19 61 39 88 46 60 15 111 41 154
79 20 17 55 34 87 41 102 23 206 122 237 226 9 30 12 251 12 860 l0 820 -23
58 c-27 67 -88 147 -149 194 -133 101 -324 102 -445 1 -26 -22 -62 -42 -80
-45 -45 -6 -126 -47 -164 -82 -18 -16 -47 -31 -66 -34 -117 -16 -235 -126
-263 -247 -4 -19 -9 -62 -10 -95 -1 -33 -3 -68 -3 -77 -1 -15 -8 -16 -43 -12
-24 4 -45 8 -47 10 -2 2 -4 103 -6 226 -1 205 -3 228 -24 281 -71 183 -266
298 -448 266z"/>
</g>
</svg>
